<?xml version="1.0" encoding="UTF-8" standalone="no"?>
<svg
   width="463.89"
   height="127.01"
   version="1.2"
   viewBox="0 0 347.91 95.258"
   id="svg30"
   sodipodi:docname="first-mutual-edited.svg"
   inkscape:version="1.3.2 (091e20e, 2023-11-25, custom)"
   xmlns:inkscape="http://www.inkscape.org/namespaces/inkscape"
   xmlns:sodipodi="http://sodipodi.sourceforge.net/DTD/sodipodi-0.dtd"
   xmlns="http://www.w3.org/2000/svg"
   xmlns:svg="http://www.w3.org/2000/svg">
  <sodipodi:namedview
     id="namedview30"
     pagecolor="#ffffff"
     bordercolor="#000000"
     borderopacity="0.25"
     inkscape:showpageshadow="2"
     inkscape:pageopacity="0.0"
     inkscape:pagecheckerboard="0"
     inkscape:deskcolor="#d1d1d1"
     inkscape:zoom="0.40660658"
     inkscape:cx="569.34641"
     inkscape:cy="734.12486"
     inkscape:window-width="1920"
     inkscape:window-height="991"
     inkscape:window-x="-9"
     inkscape:window-y="-9"
     inkscape:window-maximized="1"
     inkscape:current-layer="svg30" />
  <defs
     id="defs1">
    <clipPath
       id="clipPath1">
      <path
         d="m0 0h593.91v841.89h-593.91z"
         id="path1" />
    </clipPath>
    <clipPath
       id="clip2">
      <rect
         width="594"
         height="842"
         id="rect1" />
    </clipPath>
    <g
       clip-path="url(#clip2)"
       id="g1" />
  </defs>
  <g
     transform="translate(-122.48 -105.52)"
     id="g30">
    <path
       d="m602.64 850.95h-1208v-860h1208z"
       fill="none"
       stroke="#211e1e"
       stroke-miterlimit="10"
       id="path2" />
    <path
       d="m462.9 181.51-332.91 4e-3v-4.3907h332.91z"
       fill="#eb1c23"
       id="path3" />
    <g
       fill="#211e1e"
       id="g13">
      <path
         d="m140.15 156.63c0 4.2305 0 7.5391 0.22656 9.3945 0.12891 1.2774 0.40234 2.2461 1.7188 2.4219 0.62109 0.0937 1.5898 0.17578 2.1992 0.17578 0.58203 0 0.75781 0.13281 0.75781 0.35547 0 0.30859-0.30859 0.4414-0.97266 0.4414-2.7773 0-5.5508-0.13281-6.7031-0.13281-1.1406 0-3.9258 0.13281-5.5977 0.13281-0.61328 0-0.92578-0.0898-0.92578-0.4414 0-0.22266 0.17578-0.35547 0.66016-0.35547 0.65625 0 1.1914-0.082 1.5859-0.17578 0.88281-0.17578 1.1094-1.1445 1.2852-2.4219 0.21485-1.8555 0.21485-5.1641 0.21485-9.3945v-7.7656c0-6.6953 0-7.9375-0.0898-9.3477-0.0898-1.4961-0.4414-2.1953-1.8867-2.5078-0.35937-0.0898-1.1094-0.13281-1.7305-0.13281-0.43359 0-0.74218-0.0898-0.74218-0.35157 0-0.35547 0.35156-0.4414 1.0156-0.4414 1.1406 0 2.4219 0.043 3.5625 0.043 1.1524 0.043 2.1641 0.082 2.7812 0.082 1.6719 0 10.629 0 11.648-0.0391 0.82422-0.043 1.3594-0.043 1.8008-0.17968 0.26953-0.082 0.48438-0.25782 0.70313-0.25782 0.17578 0 0.3125 0.17579 0.3125 0.39454 0 0.30859-0.23047 0.83203-0.35157 1.9805-0.0508 0.44532-0.13672 3.043-0.21875 3.5742-0.0469 0.35157-0.13672 0.61719-0.44531 0.61719-0.30469 0-0.39453-0.21484-0.44141-0.70703 0-0.35156 0-1.0547-0.26171-1.6719-0.30469-0.62109-1.2383-1.2773-2.918-1.3242l-6.7812-0.12891c-0.26953 0-0.40625 0.12891-0.40625 0.61719v11.023c0 0.26172 0.0508 0.39844 0.3164 0.39844l5.6406-0.0469c0.75 0 1.3711 0 1.9844-0.0508 0.83985-0.0391 1.457-0.21875 1.8906-0.78907 0.22265-0.26562 0.3125-0.4414 0.58203-0.4414 0.17578 0 0.26172 0.13281 0.26172 0.39453 0 0.26953-0.21485 1.3711-0.34766 2.7383-0.0937 0.88281-0.18359 2.9102-0.18359 3.2148 0 0.39844 0 0.83594-0.4375 0.83594-0.26563 0-0.35938-0.30469-0.35938-0.61328s-0.0859-0.83594-0.25781-1.3672c-0.22266-0.61719-0.88281-1.4141-2.2461-1.5859-1.1016-0.13671-5.7774-0.13671-6.5274-0.13671-0.22656 0-0.3164 0.0898-0.3164 0.40234z"
         id="path4" />
      <path
         d="m158.5 151.91c0-5.6914 0-6.7461-0.0508-7.9336-0.0781-1.2852-0.47656-1.7227-1.3125-1.9844-0.44922-0.13672-0.92578-0.17578-1.4102-0.17578-0.40235 0-0.625-0.0937-0.625-0.44922 0-0.21875 0.3125-0.30468 0.92968-0.30468 1.4492 0 4.1016 0.0859 5.1992 0.0859 0.97266 0 3.4883-0.0859 4.9922-0.0859 0.48047 0 0.78516 0.0859 0.78516 0.30468 0 0.35547-0.22266 0.44922-0.61329 0.44922-0.39843 0-0.70312 0.0391-1.1523 0.12891-1.0586 0.16797-1.3633 0.70312-1.4492 2.0312-0.0898 1.1875-0.0898 2.2422-0.0898 7.9336v6.6133c0 3.6172 0 6.6172 0.17578 8.207 0.12891 1.0117 0.39844 1.5859 1.5391 1.7578 0.53516 0.0898 1.4141 0.13281 1.9883 0.13281 0.44532 0 0.6211 0.22656 0.6211 0.40234 0 0.26172-0.30469 0.38672-0.75391 0.38672-2.5547 0-5.207-0.125-6.2578-0.125-0.88281 0-3.5352 0.125-5.0703 0.125-0.49219 0-0.75391-0.125-0.75391-0.38672 0-0.17578 0.13281-0.40234 0.62109-0.40234 0.58203 0 1.0078-0.043 1.3633-0.13281 0.79688-0.17188 1.0195-0.70703 1.1524-1.8086 0.17187-1.5391 0.17187-4.5391 0.17187-8.1562z"
         id="path5" />
      <path
         d="m179.62 154.82c0 0.39844 0.0937 0.52344 0.35156 0.66015 0.83594 0.26563 1.9844 0.35547 2.957 0.35547 1.5391 0 2.0703-0.13281 2.7305-0.61718 1.1914-0.83985 2.5156-2.4727 2.5156-5.5586 0-5.2969-3.6133-6.6602-5.9062-6.6602-0.97265 0-1.9023 0.0469-2.2969 0.13281-0.25781 0.0898-0.35156 0.21875-0.35156 0.53125zm-4.9375-2.9102c0-5.6914 0-6.7461-0.043-7.9375-0.0937-1.2812-0.44922-1.6758-1.6836-2.0273-0.30859-0.0898-0.96875-0.12891-1.5352-0.12891-0.39844 0-0.66406-0.13672-0.66406-0.40234 0-0.26563 0.30859-0.35156 0.88281-0.35156 2.0234 0 4.4961 0.0859 5.2891 0.0859 1.3242 0 4.8555-0.0859 6.043-0.0859 2.4727 0 5.293 0.22265 7.3633 1.5859 1.1055 0.75 2.7344 2.6445 2.7344 5.1602 0 2.7773-1.5938 5.25-5.3828 8.2852 3.4414 4.2422 6.1797 7.6328 8.5156 9.9726 2.1523 2.1562 3.5195 2.332 4.1406 2.4727 0.39844 0.082 0.61719 0.082 0.92578 0.082 0.3125 0 0.48438 0.22656 0.48438 0.40234 0 0.30469-0.26172 0.38672-0.73828 0.38672h-3.7109c-2.1641 0-3.2188-0.21484-4.2344-0.74609-1.6797-0.83594-3.1328-2.5977-5.2891-5.5117-1.5469-2.0273-3.1797-4.5391-3.6641-5.1094-0.21875-0.22656-0.4375-0.26953-0.70703-0.26953l-3.4844-0.0859c-0.16796 0-0.30468 0.0859-0.30468 0.30859v0.52734c0 3.4805 0.043 6.3906 0.22265 7.9805 0.12891 1.1094 0.3086 1.8125 1.4961 1.9844 0.57422 0.0898 1.4102 0.13281 1.9023 0.13281 0.30859 0 0.48438 0.22656 0.48438 0.40234 0 0.26172-0.31641 0.38672-0.79688 0.38672-2.2539 0-5.4727-0.125-6.043-0.125-0.75 0-3.2226 0.125-4.7656 0.125-0.48047 0-0.74219-0.125-0.74219-0.38672 0-0.17578 0.12891-0.40234 0.60937-0.40234 0.57813 0 1.0234-0.043 1.3789-0.13281 0.78516-0.17188 1.0039-0.875 1.1406-1.9844 0.17578-1.5898 0.17578-4.543 0.17578-7.9805z"
         id="path6" />
      <path
         d="m201.27 168.93c-0.61718-0.26562-0.75781-0.4414-0.75781-1.2812 0-2.0273 0.1875-4.3633 0.23047-4.9766 0-0.57812 0.17578-0.97266 0.48047-0.97266 0.35937 0 0.40234 0.35157 0.40234 0.61719 0 0.48438 0.12891 1.2812 0.35938 1.9375 0.83203 2.7774 3.7383 3.707 6.1641 3.707 3.3555 0 5.3828-2.1133 5.3828-4.7578 0-1.6328-0.39843-3.2695-3.8398-5.2969l-2.25-1.3242c-4.5859-2.6875-6.0859-5.2031-6.0859-8.5078 0-4.5898 4.4062-7.5391 9.793-7.5391 2.5195 0 4.4961 0.35547 5.5117 0.61328 0.35156 0.0898 0.52734 0.21875 0.52734 0.48438 0 0.48437-0.1289 1.5469-0.1289 4.5 0 0.79297-0.17969 1.1914-0.48828 1.1914-0.26563 0-0.39844-0.22265-0.39844-0.65625 0-0.35546-0.17578-1.5039-1.0156-2.4726-0.5664-0.71094-1.8008-1.7617-4.3164-1.7617-2.7812 0-5.293 1.4492-5.293 4.0078 0 1.6758 0.61719 2.9961 4.1016 4.9375l1.5859 0.88281c5.1133 2.8281 6.7031 5.6914 6.7031 9.082 0 2.7812-1.0586 5.0312-3.8828 7.0156-1.8477 1.3242-4.4062 1.5391-6.4766 1.5391-2.2461 0-4.6328-0.21484-6.3086-0.96875"
         id="path7" />
      <path
         d="m229.7 143.36-5.7773 0.13282c-2.2461 0.0469-3.1641 0.30859-3.7461 1.1484-0.39844 0.52735-0.57422 1.0117-0.66016 1.2774-0.0898 0.30469-0.18359 0.48437-0.4375 0.48437-0.26562 0-0.35156-0.22656-0.35156-0.61718 0-0.61719 0.74609-4.2344 0.83203-4.543 0.0898-0.48047 0.21875-0.70313 0.44922-0.70313 0.30469 0 0.6914 0.30469 1.668 0.4375 1.1445 0.13281 2.5976 0.17578 3.8828 0.17578h15.738c1.2383 0 2.0781-0.0859 2.6523-0.17578 0.61719-0.082 0.91797-0.17187 1.0508-0.17187 0.26953 0 0.3125 0.21484 0.3125 0.79297 0 0.79296-0.0937 3.5703-0.0937 4.5391-0.0352 0.39844-0.12891 0.61719-0.35157 0.61719-0.30078 0-0.39843-0.17579-0.4414-0.75l-0.0352-0.39844c-0.0898-0.96485-1.1055-2.1133-4.5898-2.1524l-4.8984-0.0937v15.168c0 3.4414 0.043 6.3984 0.22266 8.0274 0.1289 1.0625 0.35937 1.7656 1.5 1.9375 0.53125 0.0898 1.4102 0.13281 1.9883 0.13281 0.4375 0 0.61328 0.22656 0.61328 0.40234 0 0.26172-0.3125 0.38672-0.75781 0.38672-2.5508 0-5.1524-0.125-6.25-0.125-0.88672 0-3.5274 0.125-5.0703 0.125-0.48828 0-0.7539-0.125-0.7539-0.38672 0-0.17578 0.13281-0.40234 0.62109-0.40234 0.56641 0 1.0508-0.043 1.3672-0.13281 0.78906-0.17188 1.0117-0.875 1.1406-1.9844 0.17578-1.582 0.17578-4.5391 0.17578-7.9805z"
         id="path8" />
      <path
         d="m266.34 136.26c0.13281-0.75391 0.39453-1.1484 0.75-1.1484 0.35937 0 0.61719 0.21875 1.1914 1.3672l12.039 24.867 11.996-25.176c0.34766-0.70703 0.57031-1.0586 0.97266-1.0586 0.39453 0 0.65234 0.44531 0.78906 1.3672l4.0156 27.25c0.39843 2.7773 0.83593 4.0547 2.1602 4.4531 1.2774 0.39844 2.1524 0.44141 2.7305 0.44141 0.39453 0 0.71094 0.043 0.71094 0.30859 0 0.35547-0.53516 0.48047-1.1406 0.48047-1.1133 0-7.2031-0.125-8.9609-0.26172-1.0195-0.0859-1.2774-0.21875-1.2774-0.48437 0-0.21875 0.17188-0.34766 0.48438-0.48438 0.26172-0.0859 0.39453-0.66015 0.22656-1.8984l-2.6562-19.402h-0.17188l-9.6094 20.02c-1.0234 2.0781-1.2461 2.4688-1.6328 2.4688-0.39453 0-0.83985-0.8789-1.5508-2.1992-1.0547-2.0312-4.5312-8.7734-5.0664-10.016-0.39844-0.92188-3.043-6.4766-4.5898-9.7812h-0.17579l-2.2891 17.551c-0.0976 0.78906-0.13281 1.3594-0.13281 2.0664 0 0.83984 0.56641 1.2344 1.3203 1.4102 0.79688 0.17969 1.4102 0.22266 1.8516 0.22266 0.35547 0 0.66797 0.0859 0.66797 0.30859 0 0.39844-0.40234 0.48047-1.0703 0.48047-1.8438 0-3.8281-0.125-4.625-0.125-0.83203 0-2.9531 0.125-4.3633 0.125-0.44531 0-0.78906-0.082-0.78906-0.48047 0-0.22265 0.26172-0.30859 0.69922-0.30859 0.34765 0 0.66406 0 1.3242-0.13281 1.2383-0.26563 1.582-1.9844 1.8047-3.4805z"
         id="path9" />
      <path
         d="m303.74 151.91c0-5.6914 0.0391-6.7461-0.0469-7.9336-0.082-1.3281-0.44141-1.6797-1.6758-2.0312-0.3125-0.0898-0.96875-0.12891-1.5039-0.12891-0.42969 0-0.66016-0.13672-0.66016-0.40234 0-0.26563 0.26953-0.35156 0.84766-0.35156 2.0703 0 4.6758 0.0859 5.8125 0.0859 0.97656 0 3.5781-0.0859 4.9844-0.0859 0.57422 0 0.83985 0.0859 0.83985 0.35156 0 0.26562-0.22657 0.40234-0.61719 0.40234-0.44141 0-0.66016 0.0391-1.1523 0.12891-1.0117 0.16797-1.3203 0.70312-1.4024 2.0312-0.0937 1.1875-0.0937 2.2422-0.0937 7.9336v5.2422c0 5.4727 1.0625 7.5898 2.9531 9.0898 1.7226 1.3711 3.5703 1.5 4.8984 1.5 1.6758 0 3.6562-0.48437 5.2109-1.9844 2.1484-2.0312 2.2422-5.293 2.2422-9.1328v-4.7148c0-5.6914-0.043-6.7461-0.0937-7.9336-0.0781-1.2852-0.39453-1.6797-1.6328-2.0312-0.3086-0.0898-0.96094-0.12891-1.4141-0.12891-0.42968 0-0.65625-0.13672-0.65625-0.40234 0-0.26563 0.27344-0.35156 0.80079-0.35156 1.9805 0 4.582 0.0859 4.6289 0.0859 0.4375 0 3.043-0.0859 4.5352-0.0859 0.53515 0 0.80078 0.0859 0.80078 0.35156 0 0.26562-0.22266 0.40234-0.66406 0.40234-0.44141 0-0.66016 0.0391-1.1445 0.12891-1.0664 0.16797-1.3281 0.70312-1.4141 2.0312-0.043 1.1875-0.0898 2.2422-0.0898 7.9336v4.0117c0 4.1914-0.44141 8.6016-3.6992 11.289-2.7344 2.293-5.6953 2.6875-8.207 2.6875-2.0273 0-6.0352-0.0898-8.8555-2.5547-1.9922-1.7227-3.5312-4.5-3.5312-9.918z"
         id="path10" />
      <path
         d="m343.2 143.36-5.7773 0.13282c-2.25 0.0469-3.1719 0.30859-3.75 1.1484-0.39844 0.52735-0.57031 1.0117-0.66016 1.2774-0.0898 0.30469-0.18359 0.48437-0.44531 0.48437-0.25781 0-0.34765-0.22656-0.34765-0.61718 0-0.61719 0.74218-4.2344 0.83593-4.543 0.0937-0.48047 0.21875-0.70313 0.44141-0.70313 0.30859 0 0.70312 0.30469 1.6758 0.4375 1.1484 0.13281 2.5977 0.17578 3.875 0.17578h15.758c1.2266 0 2.0703-0.0859 2.6406-0.17578 0.60937-0.0937 0.92578-0.17187 1.0508-0.17187 0.26953 0 0.30859 0.21484 0.30859 0.79297 0 0.79296-0.0859 3.5703-0.0859 4.5391-0.0508 0.39844-0.13672 0.61719-0.34766 0.61719-0.31641 0-0.39844-0.17579-0.44531-0.75l-0.0469-0.39844c-0.0898-0.96485-1.1016-2.1133-4.5859-2.1524l-4.8945-0.0937v15.168c0 3.4414 0.0469 6.3984 0.21875 8.0274 0.13282 1.0625 0.35547 1.7656 1.5 1.9375 0.52735 0.0898 1.4141 0.13281 1.9922 0.13281 0.42969 0 0.60938 0.22266 0.60938 0.40234 0 0.26172-0.30469 0.38672-0.7461 0.38672-2.5625 0-5.1562-0.125-6.2617-0.125-0.875 0-3.5312 0.125-5.0664 0.125-0.48828 0-0.75391-0.125-0.75391-0.38672 0-0.17578 0.13672-0.40234 0.61719-0.40234 0.57422 0 1.0625-0.043 1.3672-0.13281 0.79687-0.17188 1.0117-0.875 1.1484-1.9844 0.17578-1.582 0.17578-4.5391 0.17578-7.9805z"
         id="path11" />
      <path
         d="m364.28 151.91c0-5.6914 0.0391-6.7461-0.0508-7.9336-0.0859-1.3281-0.4375-1.6797-1.668-2.0312-0.31641-0.0898-0.97266-0.12891-1.5078-0.12891-0.4375 0-0.66016-0.13672-0.66016-0.40234 0-0.26563 0.26953-0.35156 0.84766-0.35156 2.0664 0 4.6719 0.0859 5.8086 0.0859 0.96875 0 3.5781-0.0859 4.9844-0.0859 0.57812 0 0.84375 0.0859 0.84375 0.35156 0 0.26562-0.22266 0.40234-0.61719 0.40234-0.44531 0-0.66016 0.0391-1.1484 0.12891-1.0117 0.16797-1.3203 0.70312-1.4102 2.0312-0.0898 1.1875-0.0898 2.2422-0.0898 7.9336v5.2422c0 5.4727 1.0625 7.5898 2.9531 9.0898 1.7188 1.3711 3.5703 1.5 4.8906 1.5 1.6914 0 3.668-0.48437 5.2109-1.9883 2.1602-2.0273 2.2422-5.2891 2.2422-9.1289v-4.7148c0-5.6914-0.0469-6.7461-0.082-7.9336-0.0898-1.2852-0.39843-1.6797-1.6328-2.0312-0.30078-0.0898-0.97265-0.12891-1.4102-0.12891-0.44141 0-0.66016-0.13672-0.66016-0.40234 0-0.26563 0.26562-0.35156 0.79687-0.35156 1.9766 0 4.5742 0.0859 4.6211 0.0859 0.4414 0 3.0469-0.0859 4.543-0.0859 0.52734 0 0.80078 0.0859 0.80078 0.35156 0 0.26562-0.22266 0.40234-0.66406 0.40234-0.44141 0-0.66016 0.0391-1.1445 0.12891-1.0742 0.16797-1.332 0.70312-1.4141 2.0312-0.0469 1.1875-0.0937 2.2422-0.0937 7.9336v4.0117c0 4.1914-0.4414 8.6016-3.707 11.289-2.7227 2.293-5.6797 2.6875-8.1953 2.6875-2.0274 0-6.0391-0.0898-8.8672-2.5586-1.9766-1.7188-3.5195-4.4961-3.5195-9.9141z"
         id="path12" />
      <path
         d="m450.41 158.53c0 4.8086 0 7.1875 0.85156 7.8945 0.66016 0.57032 2.1602 0.79297 5.1562 0.79297 2.0664 0 3.5703-0.043 4.5391-1.0625 0.48828-0.48047 0.88281-1.5352 0.97265-2.2422 0.0469-0.35547 0.13672-0.57422 0.44532-0.57422 0.26562 0 0.35156 0.39453 0.35156 0.83593 0 0.44532-0.26953 3.2148-0.58203 4.3203-0.25391 0.83984-0.42969 1.0156-2.4648 1.0156-2.7734 0-5.0312-0.0469-6.9688-0.13281-1.9375-0.043-3.5664-0.0859-5.1523-0.0859-0.44141 0-1.2891 0.043-2.2109 0.043-0.91797 0.043-1.8906 0.082-2.6875 0.082-0.48437 0-0.7539-0.125-0.7539-0.39453 0-0.17187 0.13281-0.39453 0.62109-0.39453 0.57031 0 1.0078-0.043 1.3633-0.13281 0.78906-0.17188 1.0117-0.875 1.1445-1.9844 0.17578-1.582 0.17578-4.543 0.17578-7.9805v-6.6133c0-5.6914 0-6.7461-0.0469-7.9336-0.0781-1.2891-0.4336-1.6797-1.6758-2.0312-0.30469-0.0898-0.78125-0.12891-1.2734-0.12891-0.4375 0-0.66016-0.13672-0.66016-0.40234 0-0.26563 0.26953-0.35156 0.83594-0.35156 1.8125 0 4.2734 0.0859 5.3359 0.0859 0.92969 0 4.1016-0.0859 5.6016-0.0859 0.57422 0 0.84375 0.0859 0.84375 0.35156 0 0.26562-0.21875 0.40234-0.71484 0.40234-0.4336 0-1.0547 0.0391-1.4922 0.12891-1.0586 0.17187-1.3633 0.70312-1.4492 2.0312-0.10547 1.1875-0.10547 2.2422-0.10547 7.9336z"
         id="path13" />
    </g>
    <path
       d="m399.79 169.71 14.785-33.406 14.766 33.406h10.285l-25.051-56.695-25.066 56.695z"
       fill="#eb1c23"
       id="path14" />
  </g>
  <text
     xml:space="preserve"
     style="font-size:13.0001px;font-family:Arial;-inkscape-font-specification:Arial;letter-spacing:0px;fill:#211e1e;fill-opacity:1;stroke:#211e1e;stroke-width:0.525003;stroke-dasharray:none;stroke-opacity:1"
     x="138.98232"
     y="89.048431"
     id="text30"><tspan
       id="tspan30"
       style="font-style:normal;font-variant:normal;font-weight:normal;font-stretch:normal;font-size:13.0001px;font-family:Georgia;-inkscape-font-specification:Georgia;fill:#211e1e;fill-opacity:1;stroke:#211e1e;stroke-width:0.525003;stroke-dasharray:none;stroke-opacity:1"
       x="138.98232"
       y="89.048431"
       sodipodi:role="line">H E A L T H</tspan></text>
</svg>
